<svg xmlns="http://www.w3.org/2000/svg" width="36" height="34" viewBox="0 0 36 34.4"><path d="M17.9 0 0 8.8l0 4.1 2 0 0 12.4 31.6 0 0-12.4 2.4 0 0-4.1zm0 4.1 11.9 6.1 0 11.3 0 0-23.9 0 0-11.3zm-5.6 6.1 0 4 11.1 0 0-4zm0 5.7 0 4 11.1 0 0-4zM32.4 27.6c-0.9 0-1.3 0.7-1.3 1.4 0 0.9 0.6 1.4 1.2 1.4 0.5 0 0.7-0.2 0.8-0.4l0.1 0.3 0.4 0 0-1.4-1.1 0 0 0.4 0.6 0c-0.1 0.5-0.5 0.6-0.6 0.6-0.4 0-0.8-0.2-0.8-0.9 0-0.7 0.4-1 0.8-1 0.4 0 0.6 0.3 0.6 0.4l0.6 0C33.5 28.1 33.2 27.6 32.4 27.6Zm-6.6 0c-0.9 0-1 0.5-1 0.8 0 0.6 0.4 0.7 0.8 0.8l0.3 0.1c0.3 0.1 0.5 0.1 0.5 0.3 0 0.3-0.3 0.3-0.6 0.3-0.5 0-0.6-0.3-0.6-0.4l-0.5 0c0 0.3 0.2 0.9 1.1 0.9 0.2 0 1-0.1 1-0.9 0-0.5-0.3-0.6-0.7-0.7l-0.6-0.2c-0.1 0-0.3-0.1-0.3-0.3 0-0.2 0.3-0.3 0.5-0.3 0.5 0 0.5 0.3 0.5 0.4l0.5 0c0-0.3-0.2-0.9-1-0.9zm-5.5 0c-0.3 0-1.3 0.2-1.3 1.4 0 1.2 0.9 1.4 1.3 1.4 0.4 0 1.3-0.2 1.3-1.4 0-1.2-0.9-1.4-1.3-1.4zM5.9 27.6c-0.4 0-1.3 0.2-1.3 1.4 0 1.2 0.9 1.4 1.3 1.4 0.2 0 0.4 0 0.7-0.2l0.3 0.3 0.3-0.3-0.3-0.3c0.2-0.2 0.3-0.5 0.3-0.9 0-1.2-0.9-1.4-1.3-1.4zm-3.7 0.1 0 2.7 2 0 0-0.5-1.5 0 0-0.7 1.3 0 0-0.5-1.3 0 0-0.6 1.4 0 0-0.5zm5.4 0 0 1.8c0 0.3 0.1 0.5 0.2 0.6 0.2 0.3 0.6 0.3 0.8 0.3 0.7 0 1.1-0.3 1.1-1l0 0 0-1.7-0.6 0 0 1.7c0 0.3-0.2 0.5-0.5 0.5-0.3 0-0.5-0.2-0.5-0.5l0-1.7zm5.3 0 0 2.7 1.9 0 0-0.5-1.3 0 0-2.2zm3.4 0 0 2.7 0.6 0 0-1.2 1 0 0 1.2 0.6 0 0-2.7-0.6 0 0 1-1 0 0-1zm5.7 0 0 1.8c0 0.3 0.1 0.5 0.2 0.6 0.2 0.3 0.6 0.3 0.8 0.3 0.7 0 1.1-0.3 1.1-1l0 0 0-1.7-0.6 0 0 1.7c0 0.3-0.2 0.5-0.5 0.5-0.3 0-0.5-0.2-0.5-0.5l0-1.7zm5.3 0 0 2.7 0.6 0 0-2.7zm1.1 0 0 2.7 0.5 0 0-1.9 0 0 1.1 1.9 0.6 0 0-2.7-0.5 0 0 1.8 0 0-1.1-1.8zm-17.5 0-0.9 2.7 0.6 0 0.2-0.5 1 0 0.2 0.5 0.6 0-0.9-2.7zm-5.1 0.4c0.3 0 0.7 0.2 0.7 0.9 0 0.2 0 0.4-0.1 0.6l-0.3-0.3-0.3 0.3L6.2 29.8c-0.1 0-0.2 0.1-0.3 0.1-0.3 0-0.7-0.2-0.7-0.9 0-0.7 0.4-0.9 0.7-0.9zm14.4 0c0.3 0 0.7 0.2 0.7 0.9 0 0.7-0.4 0.9-0.7 0.9-0.3 0-0.7-0.2-0.7-0.9 0-0.7 0.4-0.9 0.7-0.9zm-9 0.2 0 0 0.3 1-0.7 0zM3.3 31.6c-0.4 0-1.3 0.2-1.3 1.4 0 1.2 0.9 1.4 1.3 1.4 0.4 0 1.3-0.2 1.3-1.4 0-1.2-0.9-1.4-1.3-1.4zm9.4 0c-0.4 0-1.3 0.2-1.3 1.4 0 1.2 0.9 1.4 1.3 1.4 0.4 0 1.3-0.2 1.3-1.4 0-1.2-0.9-1.4-1.3-1.4zm-7.1 0.1 0 2.7 0.6 0 0-1 0.6 0c0.7 0 0.8-0.6 0.8-0.8 0-0.5-0.3-0.9-0.8-0.9zm3 0 0 2.7 0.6 0 0-1 0.6 0c0.7 0 0.8-0.6 0.8-0.8 0-0.5-0.3-0.9-0.8-0.9zm13.8 0 0 1.7c0 0.3-0.2 0.5-0.5 0.5-0.3 0-0.5-0.2-0.5-0.5l0-1.7-0.6 0 0 1.8c0 0.3 0.1 0.5 0.2 0.6 0.2 0.3 0.6 0.3 0.8 0.3 0.7 0 1.1-0.3 1.1-1l0 0 0-1.7zm-4.6 0 0 0.5 0.8 0 0 2.2 0.6 0 0-2.2 0.8 0 0-0.5zm6.2 0 0 2.7 0.5 0 0-1.9 0 0 1.1 1.9 0.6 0 0-2.7-0.5 0 0 1.8 0 0-1.1-1.8zm3.2 0 0 2.7 0.6 0 0-2.7zm1.4 0 0 0.5 0.8 0 0 2.2 0.6 0 0-2.2 0.8 0 0-0.5zm2.8 0 0.9 1.7 0 1 0.6 0 0-1 0.9-1.7-0.6 0-0.5 1.2-0.6-1.2zm-16.4 0 0 2.7 0 0 0.5 0 0-1 0.6 0c0.4 0 0.4 0.1 0.4 0.5 0 0.3 0 0.4 0.1 0.5l0.6 0 0-0.1c-0.1 0-0.1-0.1-0.1-0.5 0-0.5-0.1-0.6-0.3-0.7 0.3-0.1 0.4-0.3 0.4-0.6 0-0.2-0.1-0.8-0.8-0.8zM3.3 32.1c0.3 0 0.7 0.2 0.7 0.9 0 0.7-0.4 0.9-0.7 0.9-0.3 0-0.7-0.2-0.7-0.9 0-0.7 0.4-0.9 0.7-0.9zm9.4 0c0.3 0 0.7 0.2 0.7 0.9 0 0.7-0.4 0.9-0.7 0.9-0.3 0-0.7-0.2-0.7-0.9 0-0.7 0.4-0.9 0.7-0.9zm-6.6 0.1 0.4 0c0.3 0 0.5 0.1 0.5 0.4 0 0.1 0 0.4-0.4 0.4l-0.5 0zm3 0 0.4 0c0.3 0 0.5 0.1 0.5 0.4 0 0.1 0 0.4-0.4 0.4l-0.5 0zm6.4 0 0.7 0c0.3 0 0.4 0.2 0.4 0.3 0 0.3-0.1 0.4-0.4 0.4l-0.6 0z" stroke-width="0.8"/></svg>